<?xml version="1.0" encoding="UTF-8"?>
<!DOCTYPE svg PUBLIC "-//W3C//DTD SVG 1.1//EN" "http://www.w3.org/Graphics/SVG/1.1/DTD/svg11.dtd">
<!-- Creator: CorelDRAW X7 -->
<svg xmlns="http://www.w3.org/2000/svg" xml:space="preserve" width="15.1424cm" height="3.9141cm" version="1.1" style="shape-rendering:geometricPrecision; text-rendering:geometricPrecision; image-rendering:optimizeQuality; fill-rule:evenodd; clip-rule:evenodd"
viewBox="0 0 15142 3914"
 xmlns:xlink="http://www.w3.org/1999/xlink">
 <defs>
  <style type="text/css">
   <![CDATA[
    .fil0 {fill:#FEFEFE;fill-rule:nonzero}
   ]]>
  </style>
 </defs>
 <g id="Capa_x0020_1">
  <metadata id="CorelCorpID_0Corel-Layer"/>
  <g id="_2433858144672">
   <path class="fil0" d="M256 3848l128 0 59 -140 266 0 60 140 132 0 -252 -566 -141 0 -252 566zm222 -229l99 -239 97 239 -196 0zm1566 229l498 0 0 -89 -379 0 0 -157 358 0 0 -89 -358 0 0 -142 373 0 0 -89 -492 0 0 566zm1798 -312l0 -165 206 0c63,0 101,22 101,81 0,64 -34,84 -101,84l-206 0zm-119 312l119 0 0 -223 203 0c86,0 98,57 98,138 0,41 6,69 14,85l129 0c-23,-31 -24,-93 -24,-121 0,-81 -16,-139 -82,-153l0 -2c54,-16 93,-62 93,-136 0,-89 -47,-154 -191,-154l-359 0 0 566zm2040 -73c-133,0 -209,-86 -209,-210 0,-124 76,-210 209,-210 133,0 210,86 210,210 0,124 -77,210 -210,210zm0 89c240,0 333,-140 333,-299 0,-159 -93,-299 -333,-299 -239,0 -333,140 -333,299 0,159 94,299 333,299zm1479 -423c0,233 417,111 417,251 0,61 -66,83 -139,83 -99,0 -160,-35 -163,-110l-128 0c2,119 83,199 287,199 120,0 272,-38 272,-184 0,-243 -422,-113 -422,-247 0,-54 52,-78 132,-78 99,0 138,47 142,91l129 0c-16,-164 -190,-180 -277,-180 -138,0 -250,48 -250,175l0 0zm1710 407l119 0 0 -216 232 0c126,0 182,-88 182,-174 0,-91 -44,-176 -184,-176l-349 0 0 566zm119 -477l200 0c47,0 95,17 95,87 0,67 -37,86 -104,86l-191 0 0 -173zm1495 477l129 0 59 -140 266 0 60 140 132 0 -252 -566 -141 0 -253 566zm223 -229l99 -239 96 239 -195 0zm2160 -128c-13,-123 -114,-225 -309,-225 -223,0 -317,140 -317,299 0,159 97,299 302,299 233,0 307,-120 324,-232l-129 0c-10,60 -50,143 -174,143 -118,0 -199,-81 -199,-200 0,-147 81,-220 191,-220 101,0 170,51 182,136l129 0zm1188 357l498 0 0 -89 -379 0 0 -157 357 0 0 -89 -357 0 0 -142 373 0 0 -89 -492 0 0 566z"/>
   <path class="fil0" d="M2802 50c-314,0 -628,0 -941,0 -258,575 -517,1149 -775,1724 -3,0 -6,0 -8,0 -46,-575 -91,-1149 -137,-1724 -297,0 -594,0 -891,0l194 2262 1424 0 1134 -2262zm281 1633c63,-227 208,-359 427,-359 207,0 311,128 311,289 0,21 -4,49 -8,70 -243,0 -487,0 -730,0zm-42 629c-20,-61 -28,-131 -28,-204 511,0 1022,0 1533,0 37,-132 42,-256 42,-371 0,-673 -576,-936 -1053,-936 -535,0 -1289,321 -1289,1303 0,71 6,141 18,208l777 0zm2665 0l96 -452c49,-222 137,-408 398,-408 132,0 232,70 232,206 0,87 -42,231 -67,355l-64 299 821 0 114 -526c33,-157 58,-313 58,-408 0,-421 -324,-577 -701,-577 -261,0 -509,132 -667,325 -3,0 -5,0 -8,0 21,-90 41,-181 62,-272 -264,0 -528,0 -792,0l-304 1458 822 0zm3258 -2105c-274,0 -547,0 -821,0 -48,216 -97,431 -145,647 -119,0 -238,0 -356,0 -39,168 -78,336 -116,503 121,0 243,0 364,0 -63,293 -127,586 -190,879 -6,26 -12,51 -17,76l854 0c-6,-16 -9,-33 -9,-52 0,-70 21,-144 38,-214 48,-230 96,-459 145,-689 145,0 290,0 435,0 39,-167 77,-335 116,-503 -148,0 -296,0 -443,0 48,-216 96,-431 145,-647zm2813 647c-801,5 -924,526 -1007,870 -46,195 -69,456 -213,588l916 0 304 -1458zm-1658 1458c-23,-29 -37,-64 -37,-105 0,-62 7,-124 34,-235 240,-990 -290,-1107 -581,-1118 -186,883 -272,1251 -304,1458l888 0zm2642 0l44 -212c95,-450 269,-598 617,-598 104,0 216,16 315,53 51,-240 103,-481 154,-721 -75,-25 -154,-33 -290,-33 -212,0 -481,160 -626,387 -3,0 -6,0 -8,0 23,-111 47,-222 70,-334 -265,0 -530,0 -796,0l-302 1458 822 0zm1861 0l305 -1458c-274,0 -547,0 -821,0l-305 1458 821 0zm470 -2262c-273,0 -547,0 -820,0 -40,191 -80,382 -120,573 273,0 547,0 820,0 40,-191 80,-382 120,-573z"/>
  </g>
 </g>
</svg>
